<?xml version="1.0" encoding="UTF-8"?>
<svg width="121px" height="80px" viewBox="0 0 121 80" version="1.1" xmlns="http://www.w3.org/2000/svg" xmlns:xlink="http://www.w3.org/1999/xlink">
    <!-- Generator: Sketch 58 (84663) - https://sketch.com -->
    <title>intel</title>
    <desc>Created with Sketch.</desc>
    <g id="Page-1" stroke="none" stroke-width="1" fill="none" fill-rule="evenodd">
        <g id="03_00_Landing_Developers-ADAPTATIONS" transform="translate(-458.000000, -1921.000000)" fill-rule="nonzero">
            <g id="intel" transform="translate(458.000000, 1921.000000)">
                <path d="M35.6497421,33.933068 L35.6497421,53.5234986 L29.4297615,53.5234986 L29.4297615,28.8992476 L42.2709675,28.9120305 C47.725148,28.9120305 49.5831314,32.7682687 49.5831314,36.2710039 L49.5831314,53.5234986 L43.3743779,53.5234986 L43.3743779,36.3032786 C43.3743779,34.8359856 42.6168123,33.9330965 40.7895175,33.9330965 L35.6497421,33.9330965 L35.6497421,33.933068 Z M77.9447188,33.6388587 C75.8187408,33.6388587 74.173356,34.7346387 73.4861531,36.222193 C73.0789232,37.115328 72.9389408,37.7998134 72.8910321,38.8933381 L82.4601748,38.8933381 C82.3374086,36.222193 81.1291952,33.6388587 77.9447188,33.6388587 M72.8910321,43.1376013 C72.8910321,46.3273641 74.8687893,48.6750296 78.3998575,48.6750296 C81.1471584,48.6750296 82.5125743,47.9117383 84.1010688,46.3273641 L87.9428025,50.0049721 C85.4829578,52.4397035 82.9018411,53.9182528 78.3541942,53.9182528 C72.3999589,53.9182528 66.7017401,50.6631916 66.7017401,41.1764584 C66.7017401,33.0707054 71.6768296,28.4819524 78.2142078,28.4819524 C84.8406711,28.4819524 88.6689284,33.8542621 88.6689284,40.8912582 L88.6689284,43.1376013 L72.8910321,43.1376013 M61.4511766,53.4926976 C56.3840134,53.4926976 54.234079,49.9561896 54.234079,46.4632125 L54.234079,22.1902377 L60.4443308,22.1902377 L60.4443308,28.8992476 L65.1259709,28.8992476 L65.1259709,33.933068 L60.4443308,33.933068 L60.4443308,46.0729323 C60.4443308,47.5034481 61.1180571,48.2975119 62.5995032,48.2975119 L65.1259709,48.2975119 L65.1259709,53.4926976 L61.4511766,53.4926976 M23.8954815,25.4963327 L17.6328343,25.4963327 L17.6328343,19.531851 L23.8954815,19.531851 L23.8954815,25.4963327 Z M23.9112846,53.7824044 C19.2213612,53.3305833 17.6261305,50.4785607 17.6261305,47.1874754 L17.6329114,28.8992476 L23.9112846,28.8992476 L23.9112846,53.7824044 L23.9112846,53.7824044 Z M98.5532598,53.2562799 C93.8731139,52.8037097 92.2853706,49.9561896 92.2853706,46.6696068 L92.2853706,18.6829959 L98.5532598,18.6829959 L98.5532598,53.2562799 L98.5532598,53.2562799 Z M120.465052,22.7276185 C114.784796,-5.0383375 61.026759,-6.7960823 26.3763185,14.3531731 L26.3763185,16.6880802 C60.9915756,-1.14757332 110.084438,-1.04250148 114.557227,24.5311454 C116.053644,32.987397 111.300886,41.8039054 102.812695,46.8714986 L102.812695,53.5017067 C113.029367,49.7542978 123.507292,37.6024241 120.465048,22.7276185 M57.4784706,71.3073327 C33.5642178,73.5236564 8.64387029,70.0434378 5.15696706,51.3078995 C3.45019712,42.0718447 7.64675722,32.2811482 13.2139752,26.1995812 L13.2139752,22.9475243 C3.19193521,31.7587771 -2.24727456,42.9139419 0.884051089,56.094795 C4.88074193,72.9967828 26.2685229,82.5750804 58.9135062,79.3943225 C71.8295698,78.1304276 88.7348328,73.9664726 100.487595,67.4991319 L100.487595,58.3111187 C89.8232724,64.6778818 72.1761617,69.9428644 57.4784706,71.3073327" id="path4423" fill="#252D38"></path>
                <path d="M105.988475,19.8580425 C105.988475,19.5533746 105.810919,19.4565741 105.404867,19.4565741 L105.013049,19.4565741 L105.013049,20.3187952 C105.069984,20.3187952 105.354673,20.3292967 105.404867,20.3292967 C105.810919,20.3292967 105.988475,20.193474 105.988475,19.9083151 L105.988475,19.858071 L105.988475,19.8580425 Z M106.599801,21.9959687 L106.135313,21.9959687 C106.093361,21.9959687 106.05665,21.9696744 106.038669,21.9344376 L105.404867,20.8583453 C105.393611,20.8366098 105.338939,20.8103155 105.317215,20.8103155 L105.032526,20.8103155 L105.032526,21.8774042 C105.032526,21.9344376 104.993556,21.9959687 104.918651,21.9959687 L104.498364,21.9959687 C104.445923,21.9959687 104.393482,21.9344376 104.393482,21.8774042 L104.393482,19.1781679 C104.393482,19.0220831 104.454164,18.9567992 104.58602,18.9365371 C104.734354,18.9170403 105.137412,18.9035268 105.354673,18.9035268 C106.126325,18.9035268 106.593059,19.1316522 106.593059,19.8580507 L106.593059,19.9082988 C106.593059,20.3577971 106.369804,20.5949261 106.023686,20.7112397 L106.680715,21.8241033 C106.684901,21.8466122 106.70018,21.8774124 106.70018,21.9036456 C106.70018,21.9471696 106.673929,21.9959687 106.599789,21.9959687 M105.497005,18.4164798 C104.35376,18.4164798 103.42928,19.3620001 103.42928,20.5003765 C103.42928,21.6402508 104.35376,22.5707638 105.497005,22.5707638 C106.634252,22.5707638 107.567725,21.6402508 107.567725,20.5003765 C107.567725,19.3620001 106.634252,18.4164798 105.497005,18.4164798 M105.497005,23 C104.108034,23 103,21.8773839 103,20.5003765 C103,19.12562 104.108034,18 105.497005,18 C106.870994,18 108,19.12562 108,20.5003765 C108,21.8773839 106.870994,23 105.497005,23" id="path4425" fill="#0071C5"></path>
            </g>
        </g>
    </g>
</svg>