<?xml version="1.0" encoding="utf-8"?>
<svg width="172px" height="58px" viewBox="0 0 172 58" version="1.1" xmlns:xlink="http://www.w3.org/1999/xlink" xmlns="http://www.w3.org/2000/svg">
  <desc>Created with Lunacy</desc>
  <path d="M158.298 0L154.414 0L154.902 0.289762C163.778 5.6194 169.239 11.8993 169.239 18.6153C169.239 38.7779 126.477 53.6363 74.3087 53.6363C44.1709 53.6363 17.313 48.4083 0 40.2586L0 44.5063L0.711709 44.8306C18.6172 52.8981 44.9558 58 74.3063 58C130.643 58 172 40.8002 172 19.6065C172 12.4432 167 5.73811 158.298 0ZM57.4025 11.1825L64.9267 11.1825C68.6254 11.1825 71.0229 12.0153 72.4642 13.7935C73.4046 14.9515 73.8766 16.5011 73.8766 18.4014C73.8766 22.1462 71.0229 24.4912 69.2206 25.0932C67.7831 25.5688 66.3582 25.615 65.7453 25.607L65.4579 25.5973L62.8456 25.5973L62.8456 33.4278L57.4025 33.4278L57.4025 11.1825ZM86.8486 29.6975L86.8486 11.2768L81.408 11.2768L81.408 33.4278L94.5949 33.4278L94.5949 29.6975L86.8486 29.6975ZM149.425 11.2768L149.425 33.429L144.471 33.429L134.951 19.1955L134.951 33.429L129.409 33.429L129.409 11.2961L134.559 11.2961L143.884 25.4462L143.884 11.2768L149.425 11.2768ZM6.2265 33.4278L6.2265 11.2864L0.0132787 11.2864L0.0132787 33.4278L6.2265 33.4278ZM19.9422 11.2864L13.5684 22.4423L15.4781 22.4423L22.6027 33.4278L15.7606 33.4278L8.75307 22.4423L15.2089 11.2864L19.9422 11.2864ZM49.8615 33.429L40.1668 11.2961L36.7228 11.2961L26.841 33.429L31.229 33.429L33.6482 27.7791L41.2714 27.7707L43.5372 33.429L49.8615 33.429ZM113.019 11.2961L122.718 33.429L116.385 33.429L114.117 27.7707L106.495 27.7791L104.078 33.429L99.6903 33.429L109.572 11.2961L113.019 11.2961ZM62.8456 14.8318L64.3823 14.8318L64.6617 14.8356C67.2192 14.9068 68.3659 15.9786 68.3659 18.2696C68.3659 19.5932 67.9724 20.6449 67.2336 21.3109C66.7432 21.7547 66.105 21.9215 64.65 21.953L64.0648 21.9588L62.8456 21.9588L62.8456 14.8318ZM34.9954 24.5722L37.5497 18.6806L39.9314 24.5722L34.9954 24.5722ZM110.404 18.6806L107.847 24.5722L112.777 24.5722L110.404 18.6806Z" id="Shape" fill="#252D38" fill-rule="evenodd" stroke="none" />
</svg>