<?xml version="1.0" encoding="utf-8"?>
<svg width="145px" height="46px" viewBox="0 0 145 46" version="1.1" xmlns:xlink="http://www.w3.org/1999/xlink" xmlns="http://www.w3.org/2000/svg">
  <desc>Created with Lunacy</desc>
  <path d="M0 13.4057L28.3409 0L44.95 4.07429L41.9182 33.5143L33.6136 33.5143L32.0318 11.96L31.1091 12.3543L29.6591 33.5143L23.2 33.5143L20.1682 15.64L19.3773 15.9029L19.5091 33.5143L13.5773 33.5143L10.0182 18.7943L9.22727 19.0571L10.15 33.5143L4.35 33.5143L0 13.4057ZM73.95 30.7543L82.65 30.7543L76.9818 17.2171L81.4636 14.72L78.4318 0.657143L56.2864 0.657143L55.4955 7.22857L60.5045 7.09714L58.1318 30.8857L65.9091 30.8857L66.1727 23.2629L71.7091 20.24L73.95 30.7543ZM93.4591 0.657143L86.8682 0.657143L86.3409 30.7543L94.25 30.7543L93.4591 0.657143ZM99.7864 0.657143L120.35 0.657143L121.8 30.7543L98.9955 30.7543L99.7864 0.657143ZM144.209 0.657143L145 7.22857L136.959 6.96571L139.332 30.7543L131.291 30.7543L130.632 6.70286L124.173 6.44L123.909 0.657143L144.209 0.657143ZM72.8955 6.57143L66.5682 6.70286L66.3045 16.0343L73.6864 12.6171L72.8955 6.57143ZM114.023 24.1829L106.773 24.4457L106.377 6.70286L114.023 6.96571L114.023 24.1829ZM115.868 43.7657L115.868 42.0571L121.668 41.9257L121.668 40.0857L115.736 39.9543L115.736 38.2457L123.514 38.1143L123.514 36.1429L112.968 36.1429L112.705 46L123.777 46L123.645 44.0286L115.868 43.7657ZM23.4636 41.6629L21.3545 36.2743L41.6545 37.3257L40.7318 46L23.4636 41.6629ZM83.7045 46L87 46L84.3636 36.2743L76.4545 36.2743L73.8182 46L77.1136 46L77.6409 43.5029L83.0455 43.6343L83.7045 46ZM106.377 36.2743L107.432 46L104.005 46L103.741 39.6914L99.5227 44.0286L95.3045 39.6914L95.0409 46L91.7455 46L92.6682 36.2743L95.4364 36.2743L99.5227 40.8743L103.609 36.2743L106.377 36.2743ZM63.1409 42.0571L63.2727 40.2171L68.6773 40.0857L68.9409 46L56.55 46L57.4727 36.4057L68.4136 36.4057L68.5455 38.3771L60.1091 38.5086L59.8455 43.8971L66.0409 44.0286L66.0409 42.1886L63.1409 42.0571ZM140.255 41.0057L132.214 39.6914L132.214 38.64L139.991 38.3771L139.859 36.4057L129.973 36.4057L129.445 41.4L137.618 42.8457L137.618 43.7657L129.05 44.16L128.786 46L140.782 46L140.255 41.0057ZM81.9909 38.3771L78.8273 38.5086L78.1682 41.6629L82.65 41.5314L81.9909 38.3771Z" id="Shape" fill="#252D38" fill-rule="evenodd" stroke="none" />
</svg>