<?xml version="1.0" encoding="utf-8"?>
<svg width="269px" height="46px" viewBox="0 0 269 46" version="1.1" xmlns:xlink="http://www.w3.org/1999/xlink" xmlns="http://www.w3.org/2000/svg">
  <desc>Created with Lunacy</desc>
  <path d="M20.131 0.000529889L23.7388 0C25.0198 0.0165537 25.381 0.0685173 26.1641 0.225459C29.055 0.818243 31.7567 1.99486 34.3229 3.76336C35.8616 4.81282 38.0513 6.94129 39.3183 8.60324C40.1884 9.74247 41.2597 11.5446 41.8929 12.9018L42.4289 14.1335C42.6982 14.7034 43.2744 16.556 43.4804 17.4795L43.9577 19.9449L44.0204 20.3049L42.9104 19.9154C42.0395 19.5589 39.2045 19.1345 36.5096 18.9236L35.3694 18.8471C34.27 18.7791 29.966 18.7012 25.7875 18.6519L18.81 18.5552C18.4148 18.5458 18.1572 18.5371 18.069 18.5299L17.8626 18.4863C17.7294 18.464 17.5345 18.4383 17.3127 18.4123L16.8432 18.3609C14.9055 18.1666 13.7327 17.7386 13.3659 17.0777C13.1669 16.7276 13.1776 16.553 13.4395 16.0668C13.843 15.2919 15.0468 14.2718 17.0355 13.0222L18.9434 11.8448C19.6036 11.425 19.8806 11.2111 20.3205 10.8284C22.0736 9.32267 21.4025 7.9947 18.453 7.10783L17.1486 6.73629L17.0423 6.69863C16.847 6.62062 16.2954 6.49663 15.2929 6.31974L13.3955 5.99371C12.705 5.88162 12.2021 5.81346 11.6333 5.7524L10.5186 5.63169C10.2919 5.60221 10.106 5.57346 9.99948 5.55143L9.92092 5.53186C9.82839 5.49318 9.51491 5.44189 9.16827 5.40779L8.4917 5.34145C7.87146 5.2478 8.00639 5.06444 8.88348 4.41435L9.79449 3.73381C10.0671 3.51084 11.0095 2.92791 11.7537 2.50974C13.5444 1.50863 16.1313 0.546028 17.8699 0.235309L18.4668 0.12002C18.6265 0.0848741 18.7339 0.0557721 18.7496 0.0409973L19.5739 0.00774154C19.7401 0.00498551 19.9272 0.00257184 20.131 0.000529889ZM7.34389 5.75572L7.89893 5.83363L8.61257 5.96716C8.91239 6.02794 9.25021 6.10092 9.55419 6.1739C12.7275 6.90279 14.12 7.58243 14.5289 8.57369C14.6751 8.93366 14.6751 9.03126 14.5388 9.43869C14.3505 10.0315 13.7954 10.7317 13.0521 11.3245L12.569 11.6903C12.2046 11.9549 11.8058 12.2128 10.9464 12.7421L10.5486 12.9864C6.78885 15.3092 5.36494 16.7276 5.68953 17.8263C5.80879 18.2173 6.25689 18.5637 6.94913 18.7942L7.88654 19.0629L8.14013 19.148C8.36838 19.2367 9.78304 19.4535 11.0058 19.587L13.4659 19.8293C13.9225 19.8688 14.3657 19.9026 14.881 19.9374L18.0014 20.1356C18.6766 20.1838 19.2706 20.2319 19.6429 20.2681L20.5292 20.3686C20.7486 20.3905 20.9903 20.4117 21.2183 20.4285L21.5454 20.45C22.781 20.5279 24.9698 20.7616 26.1534 20.9362L27.8076 21.2038C28.6901 21.3525 29.3812 21.4803 29.6335 21.5448L30.5318 21.8001L30.7614 21.8594C31.6096 22.0734 33.3483 22.6662 33.6415 22.831C33.7258 22.8901 33.9661 23.0163 34.1759 23.113C34.5946 23.327 35.3487 24.0756 35.5998 24.5224C35.6949 24.6881 35.7576 25.0767 35.7576 25.4752C35.7675 26.0581 35.7155 26.2327 35.3801 26.8452C35.1712 27.2339 34.7103 27.875 34.3436 28.2645C33.7571 28.9155 32.2803 30.2076 31.4841 30.7718C30.454 31.5024 29.5174 32.1151 28.4224 32.7687L26.2063 34.0562C25.7974 34.29 24.3941 35.0386 23.4311 35.5337L20.2006 37.0592C18.7089 37.7535 17.0688 38.5098 16.0791 38.9559L13.1895 40.2L10.6643 41.2386L9.31298 41.783L8.67455 41.2583C7.33403 40.1596 6.16118 38.9937 5.24927 37.8467L4.73637 37.2154C4.44316 36.962 3.38509 35.2615 2.64174 33.8619C0.903099 30.5774 0.0342242 27.001 0.00284066 23.0745L0 22.1142C0.0117356 20.9956 0.0968118 20.3844 0.390203 18.6036C1.08053 14.3964 3.30066 9.97358 6.26638 6.82581L6.83099 6.2509L7.34389 5.75572ZM268.042 15.6978C267.409 15.1346 266.737 14.9591 265.939 15.1436L265.787 15.1964C265.61 15.2703 265.371 15.4015 265.181 15.5331C263.565 16.6506 263.575 19.148 265.191 20.3139C265.582 20.5865 265.676 20.635 266.221 20.6429L266.746 20.6429C267.133 20.6376 267.296 20.613 267.481 20.5094L267.731 20.3434C268.664 19.653 269.083 18.7298 268.986 17.6025C268.908 16.7867 268.626 16.2324 268.042 15.6978ZM200.551 15.2215L200.894 15.2107L205.971 15.1928C209.854 15.2018 211.032 15.2313 211.13 15.3191C211.168 15.3644 211.233 15.4054 211.295 15.4277L211.382 15.4453C211.625 15.4453 212.327 15.8143 212.735 16.1742C213.314 16.6671 213.685 17.3018 213.931 18.2404L214.029 18.6618C214.167 19.3343 214.212 19.6776 214.216 20.9901L214.191 24.2788C214.161 26.6151 214.131 26.9061 213.941 27.584C213.727 28.3908 213.446 28.8958 212.881 29.5083C212.589 29.819 211.937 30.2175 211.723 30.2175C211.655 30.2175 211.597 30.247 211.597 30.2954C211.597 30.3339 211.314 30.4216 210.964 30.4897C210.136 30.6455 200.901 30.6553 200.23 30.4995C198.983 30.2175 197.991 29.4402 197.523 28.3908L197.362 27.9906C197.073 27.1798 196.977 26.2416 196.931 24.0024L196.92 23.4148C196.852 18.9832 197.144 17.4663 198.293 16.3202C198.635 15.9786 199.291 15.5798 199.668 15.4729L199.831 15.4453C199.882 15.4453 199.947 15.4278 200.002 15.4018L200.074 15.3576C200.122 15.3092 200.336 15.2412 200.551 15.2215ZM126.717 15.21L126.344 15.2215C126.11 15.2412 125.867 15.2994 125.809 15.3379C125.76 15.3871 125.584 15.4453 125.429 15.4838C125.03 15.5814 124.144 16.1841 123.862 16.553C123.443 17.1171 123.142 17.778 122.967 18.5848C122.859 19.0926 122.815 19.5481 122.799 20.9373L122.797 24.668C122.81 26.1315 122.852 26.6001 122.976 27.2052L123.127 27.8693C123.171 28.0454 123.205 28.162 123.22 28.1768C123.249 28.2054 123.385 28.4293 123.511 28.6916C123.94 29.5369 124.913 30.2273 126.071 30.4995C126.723 30.6553 135.307 30.6455 136.134 30.4897C136.474 30.4315 136.757 30.3437 136.757 30.2954C136.757 30.2569 136.835 30.2175 136.932 30.2175L137.102 30.1904C137.581 30.0486 138.249 29.3714 138.587 28.663C138.774 28.2582 138.823 28.0965 138.836 27.3264L138.85 25.1152L137.098 25.1152L137.029 26.2139L137 26.5849C136.865 27.9845 136.486 28.3951 135.336 28.5654C134.421 28.6916 127.541 28.6916 126.791 28.5555C126.023 28.4194 125.497 28.0604 125.185 27.4479L124.932 26.9715L124.903 23.1229L124.901 20.8032C124.908 19.9292 124.926 19.3446 124.954 19.0399L124.981 18.8471C125.147 18.1863 125.506 17.7287 126.13 17.418L126.665 17.1458L131.688 17.1463C134.203 17.1511 135.621 17.1891 135.667 17.2434C135.706 17.2917 135.862 17.4081 136.017 17.486C136.173 17.564 136.378 17.7386 136.474 17.8747C136.669 18.137 136.951 19.4301 136.951 20.0327L136.951 20.4016L138.704 20.4016L138.701 18.8741C138.693 18.3043 138.655 18.0246 138.494 17.5672L138.236 16.9031C138.1 16.5431 137.254 15.8044 136.757 15.6002C136.514 15.5035 136.231 15.3773 136.125 15.3092C136.005 15.2411 134.925 15.2099 132.485 15.1972L126.717 15.21ZM147.365 15.2412L147.384 22.8507L147.414 30.461L149.36 30.461L149.389 27.0592L149.409 23.6575L161.039 23.6575L161.136 30.461L163.082 30.461L163.082 15.2994L161.136 15.2994L161.087 21.6651L149.409 21.6651L149.389 18.4773L149.36 15.2994L147.365 15.2412ZM106.16 15.6781L106.413 15.251L108.152 15.2511C108.641 15.2688 108.751 15.3919 109.114 16.0926L112.965 23.4025L114.565 26.3901L115.999 29.1483C116.116 29.3767 116.235 29.5929 116.331 29.7582L116.524 30.0626C116.573 30.1208 116.611 30.2372 116.611 30.3339C116.611 30.4551 116.547 30.4939 116.079 30.5052L115.326 30.5071L114.892 30.4909C114.635 30.4758 114.455 30.4535 114.422 30.4315C114.364 30.3895 114.304 30.3081 114.133 29.9917L113.381 28.5367L112.807 27.3995L102.257 27.3995L101.488 28.9057C101.06 29.7313 100.652 30.4315 100.574 30.461C100.535 30.4774 100.346 30.4909 100.089 30.4994L99.1519 30.5085C98.4976 30.5033 98.4125 30.4724 98.4125 30.3339C98.4125 30.2372 98.452 30.1208 98.5004 30.0715L98.5903 29.9522C98.6296 29.8915 98.6803 29.8059 98.7489 29.6834L102.154 23.2634L102.457 22.7204L104.768 18.3232L104.935 17.9638L105.05 17.778C105.116 17.6759 105.23 17.4645 105.337 17.2545L105.598 16.7355C105.65 16.6397 105.7 16.5569 105.739 16.5003L105.789 16.4366C105.828 16.3912 105.867 16.3287 105.889 16.2775L105.906 16.2127C105.906 16.1778 105.948 16.08 106.012 15.9548L106.16 15.6781ZM257.468 17.8171L259.721 15.251L261.54 15.2534C262.153 15.2615 262.203 15.2958 262.203 15.4355C262.203 15.5065 262.168 15.5951 262.116 15.6664L261.784 16.0001C261.58 16.2172 261.277 16.5505 260.967 16.9031L256.081 22.4719L254.66 24.1043L254.563 30.461L253.784 30.4897C253.442 30.5055 253.087 30.496 252.899 30.4769L252.792 30.461L252.568 30.4118L252.568 24.0756L249.104 20.1589L245.347 15.8922C245.201 15.7274 245.084 15.5134 245.075 15.4158C245.075 15.2844 245.169 15.2561 246.011 15.2589L247.556 15.2609L253.104 21.597L253.619 22.1701L254.67 20.9747L257.468 17.8171ZM56.2439 15.3191C56.3416 15.2215 68.1266 15.2412 68.1848 15.3379C68.2144 15.3773 68.4476 15.4453 68.7004 15.474C69.6644 15.5913 70.4821 16.1841 70.9098 17.0876L71.0465 17.3852C71.1568 17.6484 71.1936 17.8462 71.2059 18.3211L71.212 19.2841C71.212 20.6935 71.1923 20.878 70.9977 21.2281C70.8105 21.5856 70.5177 21.9121 70.1991 22.138L69.9567 22.2874L69.6742 22.4334L70.1019 22.5399C70.7054 22.7047 71.3573 23.3852 71.5814 24.1043C71.8155 24.8726 71.8244 27.6225 71.5814 28.2735C71.3049 29.0169 70.5359 29.7985 69.8218 30.0926L69.5576 30.179C69.4016 30.2175 69.207 30.2954 69.129 30.3536C68.9879 30.466 57.67 30.57 56.495 30.4804L56.4089 30.47L56.1757 30.4118L56.1873 18.658C56.1984 16.817 56.2168 15.545 56.2384 15.3461L56.2439 15.3191ZM173.141 15.3748L173.116 15.4059C173.105 15.4356 173.094 15.9533 173.084 16.81L173.058 30.5192L179.461 30.4897L184.288 30.4455C185.445 30.4222 185.978 30.3897 186.05 30.3437L186.326 30.2187L186.711 30.0715C187.413 29.819 187.967 29.3041 188.346 28.5269L188.678 27.866L188.661 25.4192C188.649 24.7083 188.62 24.4363 188.534 24.1823L188.444 23.9592C188.103 23.2393 187.539 22.6859 186.994 22.5399C186.702 22.4522 186.605 22.394 186.711 22.3743L186.888 22.305C187.259 22.1134 187.714 21.6203 187.947 21.1207C188.084 20.8555 188.129 20.6904 188.134 20.1352L188.115 18.798C188.094 17.8974 188.071 17.6472 187.936 17.3298L187.812 17.0679C187.363 16.1939 186.623 15.6495 185.573 15.4158C185.346 15.3677 184.149 15.3295 182.11 15.3043L174.81 15.2692C173.561 15.2774 173.228 15.3076 173.141 15.3748ZM92.6218 15.2994L86.0923 15.2698L82.9493 15.2694C81.2315 15.274 79.9677 15.2871 79.6076 15.3073L79.5035 15.3191C79.4827 15.3342 79.4649 16.2916 79.4527 17.7998L79.4367 25.2841C79.4422 29.4363 79.4681 30.2717 79.5625 30.424L79.5914 30.4512C79.6463 30.4693 80.8544 30.4877 82.6321 30.4989L92.6711 30.5094L92.6711 28.4687L81.4789 28.4687L81.4789 23.6575L92.1358 23.6575L92.1941 21.6651L81.4789 21.6651L81.4789 17.1941L92.681 17.1941L92.6218 15.2994ZM226.649 15.2724C224.516 15.2709 222.983 15.2889 222.954 15.3191L222.943 15.4184C222.927 15.7006 222.913 16.5659 222.903 17.7998L222.893 27.314C222.905 29.7298 222.936 30.3007 223.012 30.424L223.041 30.4512C223.265 30.538 233.474 30.4995 234.564 30.4118L235.032 30.3645C236.085 30.2374 236.86 29.9918 237.337 29.6345C238.476 28.7794 239.118 27.4962 239.333 25.6883C239.459 24.5708 239.459 21.092 239.333 19.9745C239.186 18.711 238.846 17.6902 238.34 16.9909C238.009 16.5333 237.143 15.8725 236.754 15.7757C236.598 15.7363 236.413 15.6683 236.355 15.6298L236.309 15.6014C235.949 15.4174 234.48 15.3315 230.65 15.2937L226.649 15.2724ZM265.21 16.7276C265.648 16.1062 266.514 15.8635 267.146 16.1742L267.395 16.3279C268.47 17.1318 268.362 19.0893 267.108 19.6342C266.553 19.867 266.426 19.867 265.93 19.6244C265.822 19.5731 265.718 19.5116 265.622 19.442L266.338 19.3817L266.33 18.8955L266.33 18.4093L266.553 18.9152L266.71 19.2252C266.821 19.41 266.905 19.4301 267.128 19.4301C267.585 19.4301 267.623 19.2456 267.293 18.6331L267.02 18.1182L267.293 17.8362L267.415 17.6817C267.622 17.3648 267.599 17.0033 267.332 16.6694C267.137 16.4267 267.03 16.3882 266.426 16.3488L266.211 16.3363C265.936 16.3257 265.718 16.3397 265.687 16.3784C265.656 16.4024 265.633 16.6885 265.621 17.099L265.61 17.6426L265.606 19.4299C265.273 19.1833 265.034 18.8401 264.967 18.497C264.86 17.8944 264.967 17.0589 265.21 16.7276ZM210.915 17.4377L210.38 17.1458L201.962 17.1409C201.133 17.1565 200.845 17.1907 200.709 17.2541L200.647 17.2917C200.599 17.3302 200.434 17.3893 200.288 17.4278C199.849 17.5246 199.285 18.2731 199.149 18.9053C199.013 19.6342 199.003 26.2327 199.149 26.8936C199.344 27.8069 199.986 28.3908 200.998 28.5654L201.255 28.5922C201.811 28.6328 203.009 28.6529 204.832 28.6487L209.621 28.6007C210.33 28.5761 210.519 28.533 210.71 28.444L210.817 28.3908C211.376 28.0991 211.664 27.8292 211.857 27.3723L211.996 26.9585C212.101 26.5542 212.126 26.0099 212.13 23.8896L212.128 21.3069C212.112 18.8847 212.034 18.6172 211.664 18.0591C211.577 17.9208 211.363 17.7275 211.139 17.5742L210.915 17.4377ZM58.2686 17.1941L64.4162 17.196L65.6969 17.2038C66.9023 17.2168 67.4318 17.2459 67.7797 17.3084L68.202 17.4137C69.0672 17.6744 69.2169 18.0321 69.2169 19.4489L69.2125 19.8123C69.1851 20.8233 69.0213 21.1438 68.487 21.4412C68.2133 21.5882 68.0967 21.6294 66.2546 21.6446L58.3268 21.6651L58.2686 17.1941ZM181.313 17.196L175.198 17.1941L175.198 21.6651L183.373 21.6585C185.016 21.6438 185.099 21.5961 185.368 21.4412C185.902 21.1438 186.066 20.8233 186.094 19.8267L186.098 19.4686C186.098 17.9711 185.989 17.6796 185.07 17.4118L184.655 17.3084C184.313 17.2459 183.789 17.2168 182.589 17.2038L181.313 17.196ZM224.929 17.1941L230.684 17.196C233.259 17.205 234.313 17.2469 234.875 17.3401L235.245 17.407C236.157 17.5932 236.496 17.8556 236.851 18.5552C237.668 20.1392 237.668 25.5621 236.851 27.1757C236.646 27.5938 235.975 28.1669 235.625 28.2448C235.469 28.2735 235.314 28.3415 235.284 28.3809C235.261 28.4179 233.891 28.4496 231.976 28.4625L224.929 28.4687L224.929 17.1941ZM107.522 17.418L107.506 17.4314L107.241 17.9667L105.897 20.4992L103.377 25.3292L104.744 25.3519L110.281 25.3464C111.12 25.338 111.648 25.3253 111.648 25.3095L111.355 24.7091C111.285 24.5747 111.206 24.4255 111.123 24.2699L109.335 20.8422L107.522 17.418ZM58.317 28.4687L58.317 23.6575L63.4459 23.7058L66.9683 23.7532C68.24 23.7805 68.6244 23.8167 68.8364 23.892L69.0774 24.011C69.5486 24.2905 69.6482 24.6792 69.6841 25.9507L69.692 26.3435C69.7 27.5683 69.5163 27.9723 68.9147 28.2645L68.7645 28.3287C68.5397 28.4089 68.2101 28.4433 67.0226 28.458L58.317 28.4687ZM175.198 23.6575L175.198 28.4687L184.152 28.4547C185.291 28.4362 185.519 28.3938 185.736 28.2968L185.787 28.2735C186.338 28.0063 186.484 27.8138 186.54 26.9077L186.565 26.2722C186.595 25.1448 186.575 24.9406 186.4 24.5422L186.312 24.3486C186.078 23.8807 185.801 23.7857 183.856 23.753L175.198 23.6575ZM43.9841 25.7128C43.9919 25.6182 43.9761 25.5522 43.9371 25.5522C43.9106 25.5522 43.7691 25.6592 43.5622 25.8318L42.2216 27.0063C39.8063 29.0494 35.9703 31.5104 32.6157 33.1429C32.4265 33.2405 32.2068 33.3569 32.1333 33.4151C31.9824 33.5293 27.1412 35.7993 25.5065 36.5258L23.9856 37.1702L21.6149 38.1337C18.3124 39.4538 10.845 42.0741 10.3504 42.0741C10.2554 42.0741 10.1828 42.152 10.1828 42.2496C10.1828 42.5898 13.5022 44.3386 15.2095 44.8831L16.1894 45.2151C16.2692 45.2391 16.3867 45.2701 16.5263 45.3048L17.7726 45.5885L18.6054 45.7876C18.6893 45.8019 18.8099 45.8181 18.9569 45.8352L20.3932 45.9621C22.0269 46.0588 24.8657 45.9621 25.5149 45.7678L27.1086 45.4093C27.5662 45.3099 28.0041 45.1923 28.1431 45.1356L28.3134 45.0736L29.0335 44.8446C29.8817 44.5912 32.1969 43.4638 33.2227 42.8029C35.7262 41.2091 37.9043 39.1979 39.4331 37.0694L40.2629 35.9194C40.7983 35.1091 41.8171 33.2019 42.2504 32.1615C42.8996 30.6061 43.4134 28.8474 43.7479 27.0109L43.9841 25.7128Z" id="Shape-Copy-6" fill="#252D38" fill-rule="evenodd" stroke="none" />
</svg>