<?xml version="1.0" encoding="utf-8"?>
<svg width="107px" height="46px" viewBox="0 0 107 46" version="1.1" xmlns:xlink="http://www.w3.org/1999/xlink" xmlns="http://www.w3.org/2000/svg">
  <desc>Created with Lunacy</desc>
  <path d="M28.5137 12.5701L27.6289 0L0.0679447 0C0.0224595 0 0 0.0235557 0 0.0678405L0 45.8639L12.9978 45.8639L12.9978 31.0521L25.6551 31.0521L25.6551 18.5497L12.9978 18.5497L12.9978 12.5705L12.9982 12.5701L28.5137 12.5701ZM80.6646 0.000376892L86.0408 9.92054L91.4846 0.000376892L105.707 0.000376892L93.1176 22.0825L107 46L92.3689 46L85.8364 34.3808L79.5077 46L65.2171 46L78.8273 22.2181L65.9656 0.000376892L80.6646 0.000376892ZM50.0163 0.458112C56.1068 0.458112 61.3085 2.65558 65.6213 7.05032C69.9334 11.4451 72.0906 16.7502 72.0906 22.9646C72.0906 29.224 69.9332 34.5508 65.6213 38.9461C61.3085 43.3407 56.107 45.5379 50.0163 45.5379C43.8809 45.5379 38.6562 43.3407 34.3443 38.9461C30.0313 34.551 27.8754 29.224 27.8754 22.9646C27.8754 16.75 30.0313 11.4451 34.3443 7.05032C38.6562 2.65558 43.8809 0.458112 50.0163 0.458112ZM47.4154 10.8454C48.1709 10.0913 49.0827 9.71344 50.1496 9.71344C51.2169 9.71344 52.1171 10.0913 52.8506 10.8454C53.5844 11.6007 53.9511 12.5102 53.9511 13.5754L53.9511 32.1532C53.9511 33.1751 53.5844 34.0625 52.8506 34.8169C52.1169 35.5722 51.2167 35.9491 50.1496 35.9491C49.0827 35.9491 48.1707 35.5722 47.4154 34.8169C46.6589 34.0625 46.2816 33.1751 46.2816 32.1532L46.2816 13.5754C46.2816 12.5102 46.6587 11.6007 47.4154 10.8454Z" id="Shape" fill="#252D38" fill-rule="evenodd" stroke="none" />
</svg>