<?xml version="1.0" encoding="utf-8"?>
<svg width="204px" height="66px" viewBox="0 0 204 66" version="1.1" xmlns:xlink="http://www.w3.org/1999/xlink" xmlns="http://www.w3.org/2000/svg">
  <desc>Created with Lunacy</desc>
  <path d="M151.876 35.3653C151.189 33.7725 150.371 29.1432 151.718 26.4871C153.327 28.5378 155.135 31.1662 151.871 35.3776M139.211 8.29827C137.25 15.2976 136.985 27.4222 138.983 32.4849C144.452 21.8772 139.925 10.2286 139.207 8.28722M125.363 28.6871C125.785 18.0992 125.78 10.556 123.494 6.30278C121.547 12.0506 122.53 18.0541 125.375 28.6871M129.534 38.8423C133.116 43.5316 135.103 41.0227 135.618 38.8256C131.043 21.3832 134.094 12.1232 137.21 1.53822C137.2 1.53015 137.193 1.52597 137.184 1.5191C137.017 1.40082 128.219 4.94348 127.292 5.31355C134.367 16.6491 125.884 29.4924 129.536 38.8405M172.284 37.2874C178.588 32.5297 178.048 22.6269 178.879 17.4484C178.87 17.4451 178.86 17.443 178.852 17.4397C178.852 17.4397 169.045 21.2058 167.878 21.6511C172.928 24.3246 174.595 29.7905 172.29 37.2874M116.351 35.98C118.333 40.4603 121.89 38.6383 123.357 36.7566C121.388 32.7806 120.877 31.0909 119.86 27.9267C116.62 28.4165 114.149 30.9852 116.364 35.9732M157.852 39.0496C162.389 34.5249 164.799 25.3601 164.956 20.557C164.947 20.5543 164.936 20.5511 164.926 20.5481C164.926 20.5481 155.709 24.0809 154.809 24.4309C158.608 28.4034 157.803 33.0607 154.412 38.8244C155.406 40.0352 156.962 39.6171 157.86 39.0496M181.798 24.5038C182.227 28.7116 181.105 32.576 179.887 34.4977C183.787 34.9576 186.302 28.5061 181.811 24.5038M167.241 27.6101C167.278 30.7104 165.376 35.0287 165.376 35.0287C169.295 37.6458 171.093 32.7175 167.231 27.6101M149.365 38.4223C146.031 32.2922 147.133 25.7636 150.116 21.0842C150.11 21.0815 150.103 21.077 150.099 21.0749C150.099 21.0749 146.541 22.4002 145.919 22.6281C145.596 27.8914 144.049 33.1939 141.506 37.6201C142.297 40.0054 148.279 41.1702 149.357 38.4223M177.547 38.8106C172.924 43.1896 168.26 43.4342 163.442 39.4391C160.908 43.0185 157.592 44.5435 151.795 42.4781C148.439 45.1161 141.945 45.1743 138.415 41.9453C134.856 47.3368 129.253 46.6211 125.692 41.1338C123.387 45.5112 119.095 45.666 115.625 42.5827C112.474 46.4186 108.191 46.7869 105.671 42.971C104.577 46.6749 99.7988 48.8929 94.3327 45.9127C92.6354 48.964 87.2696 51.7169 81.2401 49.2047C73.3594 56.693 66.9544 55.3874 67.0802 38.3901L63.8491 37.5687C63.8491 37.5687 64.2383 48.381 64.1185 49.6208C63.9769 53.4774 60.883 54.1849 59.8794 54.4806C56.954 55.3394 54.3052 52.9684 53.9397 50.9287C52.5705 43.3064 51.1125 34.613 50.708 34.4827C48.7116 33.8388 46.8757 52.716 41.627 56.9218C35.9088 61.5026 32.0993 57.9827 28.07 55.4128L24.5899 59.0902C23.1528 51.3116 22.1258 43.9115 24.0887 36.8044C21.5417 37.4531 17.822 36.331 17.2831 34.5377C19.107 32.0345 22.1007 32.0927 23.7378 32.3508C24.6779 29.3063 24.9144 25.6113 24.0989 21.7102C29.3455 21.8596 29.6976 25.7723 29.7275 26.8774C29.7742 29.2152 29.1569 30.8932 28.9329 31.6136C31.3326 30.5082 33.143 31.0443 34.4119 31.7101C35.6828 32.3672 36.1483 33.5619 36.2382 34.5177C33.9421 35.6198 31.5538 36.0012 29.173 35.8594C25.2988 45.5366 31.4784 52.1674 36.8974 53.7029C39.6324 36.0517 38.0816 15.4269 42.4405 5.83624C42.433 5.82967 42.4267 5.82399 42.4201 5.81742L25.0824 12.6327C23.7593 15.6345 23.0294 18.8859 22.5794 22.1905C22.1172 22.393 6.65156 28.1839 6.72101 28.5512C7.30813 31.6277 7.34975 34.6742 6.72101 37.6989C6.69676 37.7082 6.67042 37.7196 6.64497 37.7288C4.51866 38.5783 2.04355 39.2351 0.341184 40.8429C-1.04891 42.1571 2.19744 43.3219 3.12557 43.5892C3.91507 43.7983 4.74231 43.8282 5.55068 43.8282C5.94049 43.8085 6.32312 43.7499 6.70185 43.6558C6.55725 44.18 6.42791 44.7084 6.31414 45.2409C5.82941 47.3499 5.67223 49.5231 5.61954 51.6925C5.50187 56.4714 6.33809 61.2801 7.20634 65.9563C8.81379 65.3249 10.4207 64.6935 12.0278 64.062C12.3245 63.9536 12.62 63.844 12.9053 63.7404C14.143 64.5169 15.4203 65.2636 16.8274 65.7152C19.8729 66.7009 23.1043 64.8954 25.8545 63.8332C29.6895 62.3503 33.5229 60.8581 37.3259 59.293C37.7852 60.0098 38.4336 60.6072 39.3618 61.1069C42.2985 62.66 47.5419 59.5325 49.964 58.5893C50.5936 58.3447 51.2244 58.0971 51.8556 57.8507C52.3738 58.687 53.0232 59.4038 53.8915 59.9196C54.7522 60.4274 55.7777 60.4871 56.7657 60.359C57.3162 60.2891 57.8519 60.1009 58.3749 59.925C61.1536 59.0054 63.8763 57.8548 66.5969 56.776C70.9238 57.4032 74.7306 55.5556 79.0461 53.8719C79.1868 53.8164 79.3305 53.7644 79.4704 53.7094C81.4305 54.1575 83.2727 53.9783 85.1068 53.4705C85.1035 53.4732 85.102 53.4732 85.1002 53.4741C85.105 53.4732 85.108 53.4705 85.1128 53.469C86.737 53.0231 88.3771 52.3313 90.125 51.6279C92.5459 53.6888 98.6763 50.6793 99.5083 50.3597C102.623 52.6596 108.728 49.9852 109.508 49.5306C111.605 51.8603 114.328 53.1446 117.621 52.0067C119.394 51.3923 121.156 50.7385 122.911 50.0655C125.495 51.4096 128.539 51.5888 131.413 50.8421C132.696 50.513 133.971 50.0864 135.238 49.6151C136.742 50.0631 138.232 50.332 139.848 50.2618C142.546 50.1318 145.405 48.5871 147.882 47.5623C151.132 50.131 157.972 48.1298 161.777 46.4398C165.553 48.0229 169.592 48.441 173.693 47.6728C174.859 47.4578 188.031 42.5412 194.203 39.9674C189.099 41.7661 183.069 41.796 177.56 38.8091M43.9575 14.2713L42.1572 39.9531C44.8602 35.7327 46.1554 20.1714 43.9698 14.2576M109.618 41.0358C109.925 42.1409 112.822 41.8721 113.169 40.1469C109.888 35.4215 107.497 24.6532 118.813 23.2057C117.051 13.7316 118.413 6.67374 122.535 0.0152418C122.53 0.0104629 122.524 0.00628139 122.52 0.00150249C122.385 -0.114087 105.385 6.47721 105.18 6.81143C102.498 11.2295 101.156 15.8788 100.851 20.7046C100.848 20.7046 100.843 20.7076 100.838 20.7076C105.158 20.4701 107.053 31.7005 109.628 41.0493M57.8144 49.458C57.8144 49.458 59.3713 51.8176 60.5988 50.2573C61.9207 48.6238 59.6213 33.3191 59.586 33.0918C59.5758 33.0918 59.5641 33.0924 59.5503 33.0918C58.8049 33.1581 57.6258 33.7838 56.9896 34.0276C56.8214 34.0918 56.6531 34.1569 56.4857 34.2229C56.9935 35.4176 57.354 36.8513 57.5636 38.5239C58.0785 42.4829 57.8031 49.4721 57.8031 49.4721M68.6229 32.0993C72.0462 36.3405 73.2336 40.9104 71.557 46.7048C73.7115 49.7215 75.3594 49.363 77.8743 46.9007C72.8169 43.4716 73.1549 30.7552 81.6239 26.0244C81.6227 26.0244 81.6212 26.0223 81.6188 26.0211C81.6482 26.0035 81.3443 26.1053 81.3024 26.1206C79.256 26.8392 67.8182 30.8281 64.5062 32.7465C64.4377 32.774 64.0569 33.0114 63.8524 33.1348C64.8808 33.2841 65.8883 33.4932 66.8463 33.8248L68.6229 32.0993L68.6229 32.0993ZM98.0599 42.1729C99.2221 42.8599 102.73 42.4417 103.603 38.6553C101.811 32.8466 101.42 30.6656 100.59 26.9166C96.7243 27.6385 94.6587 40.1831 98.0718 42.1842M84.7601 45.2308C86.2604 46.1268 91.3468 46.545 91.9639 43.2792C90.2187 29.5578 96.1842 22.1087 99.9658 20.8784C99.8688 20.908 99.7763 20.9373 99.6862 20.968C99.3802 21.0723 98.7709 21.2867 98.7709 21.2867L83.1269 26.7329C89.6355 30.5357 89.9283 40.5415 84.7487 45.2308M81.3482 42.7816C86.4256 37.4203 84.3346 31.6477 81.9907 31.3445C77.8767 35.0159 78.641 40.9298 81.3356 42.7816M192.453 24.2036C192.649 24.1782 192.725 24.143 192.753 24.12C192.827 24.0692 192.856 23.9886 192.844 23.8664C192.836 23.7443 192.794 23.6711 192.721 23.6439C192.642 23.6036 192.539 23.5952 192.392 23.6117L191.923 23.663L191.982 24.2589L192.453 24.2093L192.453 24.2036ZM203.951 19.0962C203.939 19.0744 203.928 19.0526 203.916 19.0314L194.522 22.5925C194.9 23.0107 195.15 23.5483 195.21 24.1651C195.371 25.7021 194.245 27.0862 192.703 27.2415C191.157 27.4004 189.778 26.2807 189.623 24.7469C189.48 23.4211 190.291 22.2249 191.495 21.8091L191.491 21.8082L186.771 23.6003C187.057 24.1379 187.31 24.6756 187.519 25.246L187.518 25.2466C188.701 28.4724 188.626 32.4099 186.792 36.6563C199.236 36.0911 204.656 27.0112 203.937 19.0962M192.184 22.1457C193.469 22.0098 194.609 22.9522 194.759 24.2365C194.894 25.5172 193.954 26.671 192.671 26.8028C191.381 26.9321 190.232 25.9996 190.103 24.7218C189.961 23.4271 190.913 22.2921 192.171 22.1427M191.406 23.2586L191.673 25.8577L192.141 25.8141L192.03 24.7183L192.264 24.689C192.317 24.6878 192.353 24.689 192.383 24.7189C192.398 24.7189 192.443 24.7487 192.503 24.8571L193.151 25.6955L193.691 25.6394L192.875 24.5907C192.873 24.5833 192.869 24.5749 192.865 24.5683C192.939 24.5396 192.994 24.5089 193.037 24.473C193.244 24.3141 193.334 24.0901 193.302 23.8103C193.27 23.5208 193.137 23.3219 192.911 23.2135C192.768 23.1469 192.585 23.1245 192.342 23.1451L191.406 23.2586L191.406 23.2586Z" id="Shape" fill="#252D38" stroke="none" />
</svg>